<?xml version="1.0" standalone="no"?><!DOCTYPE svg PUBLIC "-//W3C//DTD SVG 1.1//EN" "http://www.w3.org/Graphics/SVG/1.1/DTD/svg11.dtd"><svg t="1711041980496" class="icon" viewBox="0 0 1024 1024" version="1.1" xmlns="http://www.w3.org/2000/svg" p-id="14673" xmlns:xlink="http://www.w3.org/1999/xlink" width="200" height="200"><path d="M522.039216 200.784314c-94.248157 0-170.666667 71.920941-170.666667 160.627451s76.41851 160.627451 170.666667 160.627451 170.666667-71.920941 170.666666-160.627451-76.41851-160.627451-170.666666-160.627451zM512 963.764706c-11.926588 0-18.17098-1.646431-22.708706-6.063686-2.268863-2.750745-254.895686-292.984471-321.877333-433.955138A364.985725 364.985725 0 0 1 130.509804 365.126275C130.509804 164.121098 301.377255 0 512 0s381.490196 164.663216 381.490196 367.334902c0 61.118745-11.926588 107.379451-40.879686 159.703843-80.032627 144.283608-315.632941 426.807216-317.901804 429.557961-2.831059 3.312941-7.951059 6.625882-22.14651 6.625882L512 963.764706z" fill="#59A544" p-id="14674"></path><path d="M271.058824 963.764706a240.941176 60.235294 0 1 0 481.882352 0 240.941176 60.235294 0 1 0-481.882352 0Z" fill="#59A544" fill-opacity=".098" p-id="14675"></path></svg>